<?xml version="1.0" encoding="UTF-8" standalone="no"?>
<!-- Created with Inkscape (http://www.inkscape.org/) -->

<svg
   xmlns:dc="http://purl.org/dc/elements/1.1/"
   xmlns:cc="http://creativecommons.org/ns#"
   xmlns:rdf="http://www.w3.org/1999/02/22-rdf-syntax-ns#"
   xmlns:svg="http://www.w3.org/2000/svg"
   xmlns="http://www.w3.org/2000/svg"
   xmlns:xlink="http://www.w3.org/1999/xlink"
   xmlns:sodipodi="http://sodipodi.sourceforge.net/DTD/sodipodi-0.dtd"
   xmlns:inkscape="http://www.inkscape.org/namespaces/inkscape"
   version="1.0"
   width="48"
   height="48"
   id="svg3402"
   inkscape:version="0.48.2 r9819"
   sodipodi:docname="stock_yes.svg">
  <metadata
     id="metadata22">
    <rdf:RDF>
      <cc:Work
         rdf:about="">
        <dc:format>image/svg+xml</dc:format>
        <dc:type
           rdf:resource="http://purl.org/dc/dcmitype/StillImage" />
      </cc:Work>
    </rdf:RDF>
  </metadata>
  <sodipodi:namedview
     pagecolor="#ffffff"
     bordercolor="#666666"
     borderopacity="1"
     objecttolerance="10"
     gridtolerance="10"
     guidetolerance="10"
     inkscape:pageopacity="0"
     inkscape:pageshadow="2"
     inkscape:window-width="1280"
     inkscape:window-height="975"
     id="namedview20"
     showgrid="false"
     inkscape:zoom="4.9166667"
     inkscape:cx="-34.474576"
     inkscape:cy="7.7288139"
     inkscape:window-x="0"
     inkscape:window-y="25"
     inkscape:window-maximized="1"
     inkscape:current-layer="svg3402" />
  <defs
     id="defs3404">
    <linearGradient
       id="linearGradient8662">
      <stop
         id="stop8664"
         style="stop-color:#000000;stop-opacity:1"
         offset="0" />
      <stop
         id="stop8666"
         style="stop-color:#000000;stop-opacity:0"
         offset="1" />
    </linearGradient>
    <radialGradient
       cx="23.719645"
       cy="36.421127"
       r="15.644737"
       fx="23.719645"
       fy="36.421127"
       id="radialGradient1444"
       xlink:href="#linearGradient8662"
       gradientUnits="userSpaceOnUse"
       gradientTransform="matrix(1.0714286,0,0,0.536723,-1.6942603,16.87306)" />
    <linearGradient
       id="linearGradient2264">
      <stop
         id="stop2266"
         style="stop-color:#d7e866;stop-opacity:1"
         offset="0" />
      <stop
         id="stop2268"
         style="stop-color:#8cab2a;stop-opacity:1"
         offset="1" />
    </linearGradient>
    <linearGradient
       x1="39.882145"
       y1="-38.99361"
       x2="-12.213907"
       y2="-38.99361"
       id="linearGradient2569"
       xlink:href="#linearGradient2264"
       gradientUnits="userSpaceOnUse"
       gradientTransform="matrix(0,-0.6145986,-0.5838413,0,-1.828062,41.100945)" />
    <linearGradient
       id="linearGradient3400">
      <stop
         id="stop3402"
         style="stop-color:#ffffff;stop-opacity:1"
         offset="0" />
      <stop
         id="stop3404"
         style="stop-color:#ffffff;stop-opacity:0"
         offset="1" />
    </linearGradient>
    <linearGradient
       x1="20.494444"
       y1="6.0097799"
       x2="20.494444"
       y2="47.760197"
       id="linearGradient3406"
       xlink:href="#linearGradient3400"
       gradientUnits="userSpaceOnUse"
       gradientTransform="translate(0,3.0394815)" />
  </defs>
  <path
     inkscape:export-ydpi="90"
     inkscape:export-xdpi="90"
     inkscape:export-filename="/home/daz/Desktop/dialog-apply.png"
     sodipodi:nodetypes="ccccccc"
     id="path3774"
     d="M 18.357993,29.950878 38.847813,6.5876925 C 47.252884,14.909951 37.789069,5.5728802 45.070745,12.749314 32.669894,26.889181 33.633174,25.790816 19.016325,42.457442 L 2.9292553,26.528876 8.4938528,20.183929 18.357993,29.950878 z"
     style="fill:#d7d7d7;fill-opacity:1;fill-rule:evenodd;stroke:none"
     inkscape:connector-curvature="0" />
  <path
     id="path3003"
     d="m -67.728814,2.4991907 c -11.558531,0 -20.9375,9.3789693 -20.9375,20.9375003 0,11.558531 9.378969,20.9375 20.9375,20.9375 11.55853,0 20.9375,-9.378969 20.9375,-20.9375 0,-11.55853 -9.37897,-20.9375003 -20.9375,-20.9375003 z m 10.03125,9.7500003 c 5.915394,5.857111 -0.718511,-0.738194 4.40625,4.3125 l -18.34375,20.90625 -11.34375,-11.1875 3.9375,-4.46875 6.9375,6.875 14.40625,-16.4375 z"
     style="fill:#f9f9f9;fill-opacity:1;stroke:none"
     inkscape:connector-curvature="0" />
  <path
     inkscape:connector-curvature="0"
     style="fill:#a8acb0;fill-opacity:1;stroke:none"
     d="m -67.728814,1.9986907 c -11.558531,0 -20.9375,9.3789693 -20.9375,20.9375003 0,11.558531 9.378969,20.9375 20.9375,20.9375 11.55853,0 20.9375,-9.378969 20.9375,-20.9375 0,-11.55853 -9.37897,-20.9375003 -20.9375,-20.9375003 z m 10.03125,9.7500003 c 5.915394,5.857111 -0.718511,-0.738194 4.40625,4.3125 l -18.34375,20.90625 -11.34375,-11.1875 3.9375,-4.46875 6.9375,6.875 14.40625,-16.4375 z"
     id="path2992" />
</svg>
