<?xml version="1.0" encoding="UTF-8" standalone="no"?>
<!-- Created with Inkscape (http://www.inkscape.org/) -->

<svg
   xmlns:dc="http://purl.org/dc/elements/1.1/"
   xmlns:cc="http://creativecommons.org/ns#"
   xmlns:rdf="http://www.w3.org/1999/02/22-rdf-syntax-ns#"
   xmlns:svg="http://www.w3.org/2000/svg"
   xmlns="http://www.w3.org/2000/svg"
   xmlns:xlink="http://www.w3.org/1999/xlink"
   xmlns:sodipodi="http://sodipodi.sourceforge.net/DTD/sodipodi-0.dtd"
   xmlns:inkscape="http://www.inkscape.org/namespaces/inkscape"
   width="48px"
   height="48px"
   id="svg2562"
   sodipodi:version="0.32"
   inkscape:version="0.48.2 r9819"
   sodipodi:docname="stock_file-properites.svg"
   inkscape:output_extension="org.inkscape.output.svg.inkscape"
   inkscape:export-filename="/home/daz/Pictures/icons/dazzl/png/actions/document-properties.png"
   inkscape:export-xdpi="90"
   inkscape:export-ydpi="90"
   version="1.1">
  <defs
     id="defs2564">
    <linearGradient
       inkscape:collect="always"
       id="linearGradient3593">
      <stop
         style="stop-color:#3ab1d5;stop-opacity:1;"
         offset="0"
         id="stop3595" />
      <stop
         style="stop-color:#287a93;stop-opacity:1"
         offset="1"
         id="stop3597" />
    </linearGradient>
    <linearGradient
       inkscape:collect="always"
       xlink:href="#linearGradient3593"
       id="linearGradient5078"
       gradientUnits="userSpaceOnUse"
       x1="-10.757737"
       y1="445.92471"
       x2="-10.757737"
       y2="462.00143" />
    <linearGradient
       inkscape:collect="always"
       xlink:href="#linearGradient3593"
       id="linearGradient4880"
       gradientUnits="userSpaceOnUse"
       x1="14.10076"
       y1="1.7549312"
       x2="13.830456"
       y2="19.159325" />
    <inkscape:perspective
       sodipodi:type="inkscape:persp3d"
       inkscape:vp_x="0 : 24 : 1"
       inkscape:vp_y="0 : 1000 : 0"
       inkscape:vp_z="48 : 24 : 1"
       inkscape:persp3d-origin="24 : 16 : 1"
       id="perspective2570" />
    <linearGradient
       inkscape:collect="always"
       xlink:href="#linearGradient3593"
       id="linearGradient3780"
       x1="-10.470651"
       y1="446.16394"
       x2="-10.374956"
       y2="461.2359"
       gradientUnits="userSpaceOnUse" />
    <linearGradient
       inkscape:collect="always"
       xlink:href="#linearGradient3593"
       id="linearGradient4458"
       x1="25.816381"
       y1="11.496262"
       x2="25.816381"
       y2="34.373089"
       gradientUnits="userSpaceOnUse"
       gradientTransform="matrix(1.1587308,1.0773698e-2,-1.0773698e-2,1.1587308,-3.240794,-3.8935294)" />
    <linearGradient
       inkscape:collect="always"
       xlink:href="#linearGradient3593"
       id="linearGradient6183"
       gradientUnits="userSpaceOnUse"
       x1="-10.470651"
       y1="446.16394"
       x2="-10.374956"
       y2="461.2359" />
    <linearGradient
       inkscape:collect="always"
       id="linearGradient3967-2">
      <stop
         style="stop-color:#ffffff;stop-opacity:1;"
         offset="0"
         id="stop3969-1" />
      <stop
         style="stop-color:#ffffff;stop-opacity:0;"
         offset="1"
         id="stop3971-5" />
    </linearGradient>
    <linearGradient
       inkscape:collect="always"
       xlink:href="#linearGradient3967-2"
       id="linearGradient3973-9"
       x1="36.639923"
       y1="10.711333"
       x2="35.581474"
       y2="16.066296"
       gradientUnits="userSpaceOnUse" />
    <linearGradient
       inkscape:collect="always"
       xlink:href="#linearGradient3167-0"
       id="linearGradient2786-9"
       gradientUnits="userSpaceOnUse"
       x1="-10.292396"
       y1="461.78082"
       x2="-10.757737"
       y2="446.14532" />
    <linearGradient
       inkscape:collect="always"
       id="linearGradient3177-1">
      <stop
         style="stop-color:#00405b;stop-opacity:1"
         offset="0"
         id="stop3179-6" />
      <stop
         style="stop-color:#019bdb;stop-opacity:1"
         offset="1"
         id="stop3181-2" />
    </linearGradient>
    <linearGradient
       inkscape:collect="always"
       xlink:href="#linearGradient3177-1"
       id="linearGradient2784-1"
       gradientUnits="userSpaceOnUse"
       x1="-13.084444"
       y1="461.78082"
       x2="-13.084444"
       y2="455.85181" />
    <linearGradient
       id="linearGradient3167-0">
      <stop
         style="stop-color:#035b95;stop-opacity:1"
         offset="0"
         id="stop3169-5" />
      <stop
         style="stop-color:#62b1d7;stop-opacity:1;"
         offset="1"
         id="stop3171-3" />
    </linearGradient>
    <linearGradient
       inkscape:collect="always"
       xlink:href="#linearGradient3167-0"
       id="linearGradient3173-2"
       x1="-10.292396"
       y1="461.78082"
       x2="-10.757737"
       y2="446.14532"
       gradientUnits="userSpaceOnUse" />
    <linearGradient
       inkscape:collect="always"
       id="linearGradient3593-1">
      <stop
         style="stop-color:#3ab1d5;stop-opacity:1;"
         offset="0"
         id="stop3595-9" />
      <stop
         style="stop-color:#287a93;stop-opacity:1"
         offset="1"
         id="stop3597-7" />
    </linearGradient>
    <linearGradient
       inkscape:collect="always"
       xlink:href="#linearGradient3593-1"
       id="linearGradient5078-6"
       gradientUnits="userSpaceOnUse"
       x1="-10.757737"
       y1="445.92471"
       x2="-10.757737"
       y2="462.00143" />
    <linearGradient
       inkscape:collect="always"
       xlink:href="#linearGradient3593-1"
       id="linearGradient4880-8"
       gradientUnits="userSpaceOnUse"
       x1="14.10076"
       y1="1.7549312"
       x2="13.830456"
       y2="19.159325" />
    <inkscape:perspective
       sodipodi:type="inkscape:persp3d"
       inkscape:vp_x="0 : 24 : 1"
       inkscape:vp_y="0 : 1000 : 0"
       inkscape:vp_z="48 : 24 : 1"
       inkscape:persp3d-origin="24 : 16 : 1"
       id="perspective2570-2" />
    <linearGradient
       inkscape:collect="always"
       xlink:href="#linearGradient3593-1"
       id="linearGradient3780-0"
       x1="-10.470651"
       y1="446.16394"
       x2="-10.374956"
       y2="461.2359"
       gradientUnits="userSpaceOnUse" />
    <linearGradient
       gradientUnits="userSpaceOnUse"
       y2="461.2359"
       x2="-10.374956"
       y1="446.16394"
       x1="-10.470651"
       id="linearGradient3780-6"
       xlink:href="#linearGradient3593-9"
       inkscape:collect="always" />
    <inkscape:perspective
       id="perspective2570-26"
       inkscape:persp3d-origin="24 : 16 : 1"
       inkscape:vp_z="48 : 24 : 1"
       inkscape:vp_y="0 : 1000 : 0"
       inkscape:vp_x="0 : 24 : 1"
       sodipodi:type="inkscape:persp3d" />
    <linearGradient
       y2="19.159325"
       x2="13.830456"
       y1="1.7549312"
       x1="14.10076"
       gradientUnits="userSpaceOnUse"
       id="linearGradient4880-9"
       xlink:href="#linearGradient3593-9"
       inkscape:collect="always" />
    <linearGradient
       y2="462.00143"
       x2="-10.757737"
       y1="445.92471"
       x1="-10.757737"
       gradientUnits="userSpaceOnUse"
       id="linearGradient5078-68"
       xlink:href="#linearGradient3593-9"
       inkscape:collect="always" />
    <linearGradient
       id="linearGradient3593-9"
       inkscape:collect="always">
      <stop
         id="stop3595-2"
         offset="0"
         style="stop-color:#3ab1d5;stop-opacity:1;" />
      <stop
         id="stop3597-0"
         offset="1"
         style="stop-color:#287a93;stop-opacity:1" />
    </linearGradient>
    <linearGradient
       gradientUnits="userSpaceOnUse"
       y2="446.14532"
       x2="-10.757737"
       y1="461.78082"
       x1="-10.292396"
       id="linearGradient3173"
       xlink:href="#linearGradient3167"
       inkscape:collect="always" />
    <linearGradient
       id="linearGradient3167">
      <stop
         id="stop3169"
         offset="0"
         style="stop-color:#035b95;stop-opacity:1" />
      <stop
         id="stop3171"
         offset="1"
         style="stop-color:#62b1d7;stop-opacity:1;" />
    </linearGradient>
    <linearGradient
       y2="455.85181"
       x2="-13.084444"
       y1="461.78082"
       x1="-13.084444"
       gradientUnits="userSpaceOnUse"
       id="linearGradient2784"
       xlink:href="#linearGradient3177"
       inkscape:collect="always" />
    <linearGradient
       id="linearGradient3177"
       inkscape:collect="always">
      <stop
         id="stop3179"
         offset="0"
         style="stop-color:#00405b;stop-opacity:1" />
      <stop
         id="stop3181"
         offset="1"
         style="stop-color:#019bdb;stop-opacity:1" />
    </linearGradient>
    <linearGradient
       y2="446.14532"
       x2="-10.757737"
       y1="461.78082"
       x1="-10.292396"
       gradientUnits="userSpaceOnUse"
       id="linearGradient2786"
       xlink:href="#linearGradient3167"
       inkscape:collect="always" />
    <linearGradient
       gradientUnits="userSpaceOnUse"
       y2="16.066296"
       x2="35.581474"
       y1="10.711333"
       x1="36.639923"
       id="linearGradient3973"
       xlink:href="#linearGradient3967"
       inkscape:collect="always" />
    <linearGradient
       id="linearGradient3967"
       inkscape:collect="always">
      <stop
         id="stop3969"
         offset="0"
         style="stop-color:#ffffff;stop-opacity:1;" />
      <stop
         id="stop3971"
         offset="1"
         style="stop-color:#ffffff;stop-opacity:0;" />
    </linearGradient>
  </defs>
  <sodipodi:namedview
     id="base"
     pagecolor="#ffffff"
     bordercolor="#666666"
     borderopacity="1.0"
     inkscape:pageopacity="0.0"
     inkscape:pageshadow="2"
     inkscape:zoom="7"
     inkscape:cx="-11.748302"
     inkscape:cy="24"
     inkscape:current-layer="layer1"
     showgrid="true"
     inkscape:grid-bbox="true"
     inkscape:document-units="px"
     inkscape:window-width="1280"
     inkscape:window-height="932"
     inkscape:window-x="0"
     inkscape:window-y="25"
     inkscape:window-maximized="1" />
  <metadata
     id="metadata2567">
    <rdf:RDF>
      <cc:Work
         rdf:about="">
        <dc:format>image/svg+xml</dc:format>
        <dc:type
           rdf:resource="http://purl.org/dc/dcmitype/StillImage" />
      </cc:Work>
    </rdf:RDF>
  </metadata>
  <g
     id="layer1"
     inkscape:label="Layer 1"
     inkscape:groupmode="layer">
    <path
       inkscape:connector-curvature="0"
       style="fill:#d7d7d7;fill-opacity:1;stroke:none"
       d="m 20.15625,1.8700011 c -0.192701,-0.0086 -0.39026,0.0029 -0.625,0.03125 -0.291674,0.03522 -0.602797,0.120512 -0.96875,0.21875 -4.920337,1.320829 -0.773262,4.336479 -2.1875,7.499999 -1.410309,0.7487599 -2.686818,1.7317049 -3.8125,2.8437499 -3.1810141,0.318974 -4.7537583,-4.4010699 -7.2812499,0.0625 -2.42677,4.285699 1.7499356,3.75875 3.21875,6.40625 -0.5473137,1.653976 -0.7976559,3.380359 -0.78125,5.21875 0.0012,0.13471 -0.00445,0.272349 0,0.40625 -2.1261004,2.028836 -5.9363419,0.3526 -4.75,5.125001 1.2016087,4.833838 3.8083995,1.238639 6.65625,2.062499 0.8494639,1.578716 1.9813539,2.944257 3.2812499,4.15625 0.308808,3.310092 -4.2290901,4.960714 0.0625,7.59375 4.472012,2.743729 3.41514,-2.706839 6.8125,-3.75 1.281239,0.342346 2.616521,0.545659 4,0.5625 3.140184,1.937635 0.577926,6.956989 5.65625,5.59375 4.947706,-1.328175 0.7964,-4.31688 2.28125,-7.5 1.377986,-0.738274 2.551389,-1.694774 3.65625,-2.78125 3.183101,-0.32237 4.81543,4.340037 7.34375,-0.125 2.426772,-4.285696 -1.812435,-3.69625 -3.28125,-6.34375 0.547314,-1.653973 0.860156,-3.442859 0.84375,-5.28125 -10e-4,-0.116919 0.0035,-0.227437 0,-0.34375 2.126101,-2.028833 5.936342,-0.352599 4.75,-5.125 -1.210769,-4.870661 -3.876982,-1.226531 -6.75,-2.125 -0.832032,-1.532459 -1.928895,-2.908187 -3.1875,-4.09375 -0.308796,-3.3100919 4.22909,-4.9919609 -0.0625,-7.6249989 -4.492555,-2.75636 -3.420704,2.71171 -6.875,3.71875 -1.251852,-0.330801 -2.588227,-0.510494 -3.9375,-0.53125 -2.731787,-1.685629 -1.171979,-5.746658 -4.0625,-5.875 z M 24,17.83875 c 3.392606,0 6.15625,2.763644 6.15625,6.15625 0,3.392606 -2.763644,6.156251 -6.15625,6.156251 -3.392606,0 -6.15625,-2.763645 -6.15625,-6.156251 0,-3.392606 2.763644,-6.15625 6.15625,-6.15625 z"
       id="path3240" />
    <path
       inkscape:connector-curvature="0"
       style="fill:#cccccc;fill-opacity:1;stroke:none"
       d="m -31.985336,-3.5306795 -1.523492,2.1254075 -1.785933,0 0,-2.45187 -6.811653,0 0,2.45187 c -6.873277,0.1538176 -9.608528,3.7193874 -10.693422,8.7056681 l 2.959392,1.958775 c 0.157559,0.104286 0.426739,-3.657343 7.73403,-3.046984 l 0,10.0122149 -1.807372,1.523492 0,24.394963 10.426397,0 0,-24.394963 -1.807372,-1.523492 0,-10.0122149 1.785933,0 1.523492,2.125407 7.498437,0 0,-11.8682736 -7.498437,0 z"
       id="rect2837"
       sodipodi:nodetypes="cccccccsccccccccccccc" />
    <path
       id="path3806"
       d="m -65.678273,-12.735965 c -7.922719,-2.739985 -14.191252,5.8073877 -11.147591,13.01344357 L -100.2564,25.156257 -92.050654,32.40292 -70.844133,5.4970296 c 7.66438,2.984849 14.963339,-6.14505303 11.242165,-13.0707533 l -5.864124,6.90246927 -6.076305,-5.16224097 5.864124,-6.9024696 z M -90.78339,22.971678 c 0.110957,0.09427 0.182021,0.218276 0.274523,0.324998 0.889161,1.025824 0.952297,2.551816 0.0462,3.618352 -1.000361,1.177492 -2.765859,1.321085 -3.943351,0.320723 -1.177491,-1.00036 -1.321084,-2.765857 -0.320724,-3.94335 0.8984,-1.057476 2.399112,-1.251765 3.551612,-0.561761 0.1308,0.07831 0.271724,0.139078 0.391738,0.241038 z"
       style="fill:#f9f9f9;fill-opacity:1;stroke:none"
       inkscape:connector-curvature="0" />
    <path
       inkscape:connector-curvature="0"
       style="fill:#a8acb0;fill-opacity:1;stroke:none"
       d="m -65.678273,-12.735965 c -7.922719,-2.739985 -14.191252,5.8073877 -11.147591,13.01344357 L -100.2564,25.156257 -92.050654,32.40292 -70.844133,5.4970296 c 7.66438,2.984849 14.963339,-6.14505303 11.242165,-13.0707533 l -5.864124,6.90246927 -6.076305,-5.16224097 5.864124,-6.9024696 z M -90.78339,22.971678 c 0.110957,0.09427 0.182021,0.218276 0.274523,0.324998 0.889161,1.025824 0.952297,2.551816 0.0462,3.618352 -1.000361,1.177492 -2.765859,1.321085 -3.943351,0.320723 -1.177491,-1.00036 -1.321084,-2.765857 -0.320724,-3.94335 0.8984,-1.057476 2.399112,-1.251765 3.551612,-0.561761 0.1308,0.07831 0.271724,0.139078 0.391738,0.241038 z"
       id="path2868" />
    <path
       id="path3036"
       d="m -20.377636,10.142857 c -6.980988,2.717959 -6.304684,12.165936 -0.0625,15.312501 l -1.5625,30.5 9.78125,0.1875 -1.125,-30.59375 c 6.9467249,-2.401726 6.6351349,-12.842619 0.09375,-15.406251 l 0,8.09375 -7.125,0 0,-8.09375 z m 3.5625,38.843751 c 0.130106,0 0.250255,0.04334 0.375,0.0625 1.199081,0.184166 2.125,1.186894 2.125,2.4375 0,1.380712 -1.119288,2.5 -2.5,2.5 -1.380712,0 -2.5,-1.119288 -2.5,-2.5 0,-1.239985 0.909627,-2.240596 2.09375,-2.4375 0.134386,-0.02235 0.265523,-0.0625 0.40625,-0.0625 z"
       style="fill:#cccccc;fill-opacity:1;stroke:none"
       inkscape:connector-curvature="0" />
    <path
       inkscape:connector-curvature="0"
       style="fill:#a8acb0;fill-opacity:1;stroke:none"
       d="m -38.651821,49.889186 c -8.764921,-3.826862 -16.660906,5.332006 -13.845618,13.800607 l -25.277485,22.573854 8.682596,8.977789 22.929881,-25.078812 c 8.449143,4.082178 17.569304,-5.64679 13.958321,-13.857303 l -7.288502,7.324353 -6.447696,-6.416134 z m -28.153299,34.73956 c 0.117741,0.117156 0.187437,0.264576 0.28307,0.394249 0.919253,1.246443 0.854186,2.987649 -0.271998,4.119374 -1.243346,1.249462 -3.264164,1.254418 -4.513625,0.01107 -1.249461,-1.243346 -1.254419,-3.264163 -0.01107,-4.513624 1.116619,-1.122113 2.840836,-1.208476 4.089711,-0.320347 0.141738,0.100792 0.296564,0.182545 0.423913,0.309272 z"
       id="path3035"
       sodipodi:nodetypes="cccccccccssssscs" />
    <path
       sodipodi:nodetypes="cccccccccssssscs"
       id="path3037"
       d="m -70.949065,18 c -6.980988,2.717958 -6.304684,12.165935 -0.0625,15.3125 l -1.5625,26.5 9.78125,0.1875 -1.125,-26.59375 C -56.971091,31.004524 -57.282681,20.563631 -63.824065,18 l 0,8.093749 -7.125,0 z m 3.5625,34.84375 c 0.130106,0 0.250255,0.04334 0.375,0.0625 1.199081,0.184166 2.125,1.186894 2.125,2.4375 0,1.380712 -1.119288,2.5 -2.5,2.5 -1.380712,0 -2.5,-1.119288 -2.5,-2.5 0,-1.239985 0.909627,-2.240596 2.09375,-2.4375 0.134386,-0.02235 0.265523,-0.0625 0.40625,-0.0625 z"
       style="fill:#a8acb0;fill-opacity:1;stroke:none"
       inkscape:connector-curvature="0" />
  </g>
</svg>
