<?xml version="1.0" encoding="UTF-8" standalone="no"?>
<!-- Created with Inkscape (http://www.inkscape.org/) -->

<svg
   xmlns:dc="http://purl.org/dc/elements/1.1/"
   xmlns:cc="http://creativecommons.org/ns#"
   xmlns:rdf="http://www.w3.org/1999/02/22-rdf-syntax-ns#"
   xmlns:svg="http://www.w3.org/2000/svg"
   xmlns="http://www.w3.org/2000/svg"
   xmlns:sodipodi="http://sodipodi.sourceforge.net/DTD/sodipodi-0.dtd"
   xmlns:inkscape="http://www.inkscape.org/namespaces/inkscape"
   width="48px"
   height="48px"
   id="svg2562"
   sodipodi:version="0.32"
   inkscape:version="0.48.2 r9819"
   sodipodi:docname="list-add.svg"
   inkscape:output_extension="org.inkscape.output.svg.inkscape"
   inkscape:export-filename="/home/daz/Pictures/icons/dazzl/png/actions/list-add.png"
   inkscape:export-xdpi="90"
   inkscape:export-ydpi="90"
   version="1.1">
  <defs
     id="defs2564">
    <inkscape:perspective
       sodipodi:type="inkscape:persp3d"
       inkscape:vp_x="0 : 24 : 1"
       inkscape:vp_y="0 : 1000 : 0"
       inkscape:vp_z="48 : 24 : 1"
       inkscape:persp3d-origin="24 : 16 : 1"
       id="perspective2570" />
  </defs>
  <sodipodi:namedview
     id="base"
     pagecolor="#ffffff"
     bordercolor="#666666"
     borderopacity="1.0"
     inkscape:pageopacity="0.0"
     inkscape:pageshadow="2"
     inkscape:zoom="7"
     inkscape:cx="-15.32"
     inkscape:cy="28.642857"
     inkscape:current-layer="layer1"
     showgrid="true"
     inkscape:grid-bbox="true"
     inkscape:document-units="px"
     inkscape:window-width="1280"
     inkscape:window-height="975"
     inkscape:window-x="0"
     inkscape:window-y="25"
     inkscape:window-maximized="1" />
  <metadata
     id="metadata2567">
    <rdf:RDF>
      <cc:Work
         rdf:about="">
        <dc:format>image/svg+xml</dc:format>
        <dc:type
           rdf:resource="http://purl.org/dc/dcmitype/StillImage" />
      </cc:Work>
    </rdf:RDF>
  </metadata>
  <g
     id="layer1"
     inkscape:label="Layer 1"
     inkscape:groupmode="layer">
    <path
       id="path3006"
       d="m 24,3.563 c -11.563462,0 -20.9375,9.374038 -20.9375,20.9375 0,11.563462 9.374038,20.9375 20.9375,20.9375 11.563462,0 20.9375,-9.374038 20.9375,-20.9375 C 44.9375,12.937038 35.563462,3.563 24,3.563 z m -2.6875,8.71875 5.375,0 0,9.53125 9.53125,0 0,5.375 -9.53125,0 0,9.53125 -5.375,0 0,-9.53125 -9.53125,0 0,-5.375 9.53125,0 0,-9.53125 z"
       style="fill:#f9f9f9;fill-opacity:1;stroke:none"
       inkscape:connector-curvature="0" />
    <path
       style="fill:#d7d7d7;fill-opacity:1;stroke:none"
       d="M 24 3.0625 C 12.436538 3.0625 3.0625 12.436538 3.0625 24 C 3.0625 35.563462 12.436538 44.9375 24 44.9375 C 35.563462 44.9375 44.9375 35.563462 44.9375 24 C 44.9375 12.436538 35.563462 3.0625 24 3.0625 z M 21.3125 11.78125 L 26.6875 11.78125 L 26.6875 21.3125 L 36.21875 21.3125 L 36.21875 26.6875 L 26.6875 26.6875 L 26.6875 36.21875 L 21.3125 36.21875 L 21.3125 26.6875 L 11.78125 26.6875 L 11.78125 21.3125 L 21.3125 21.3125 L 21.3125 11.78125 z "
       id="path2985" />
  </g>
</svg>
