<?xml version="1.0" encoding="UTF-8" standalone="no"?>
<!-- Created with Inkscape (http://www.inkscape.org/) -->

<svg
   xmlns:dc="http://purl.org/dc/elements/1.1/"
   xmlns:cc="http://creativecommons.org/ns#"
   xmlns:rdf="http://www.w3.org/1999/02/22-rdf-syntax-ns#"
   xmlns:svg="http://www.w3.org/2000/svg"
   xmlns="http://www.w3.org/2000/svg"
   xmlns:xlink="http://www.w3.org/1999/xlink"
   xmlns:sodipodi="http://sodipodi.sourceforge.net/DTD/sodipodi-0.dtd"
   xmlns:inkscape="http://www.inkscape.org/namespaces/inkscape"
   width="64px"
   height="64px"
   id="svg2985"
   version="1.1"
   inkscape:version="0.48.2 r9819"
   sodipodi:docname="xfce4-panel-menu.svg">
  <defs
     id="defs2987">
    <inkscape:perspective
       sodipodi:type="inkscape:persp3d"
       inkscape:vp_x="0 : 0.5 : 1"
       inkscape:vp_y="0 : 1000 : 0"
       inkscape:vp_z="1 : 0.5 : 1"
       inkscape:persp3d-origin="0.5 : 0.33333333 : 1"
       id="perspective2858" />
    <inkscape:perspective
       sodipodi:type="inkscape:persp3d"
       inkscape:vp_x="0 : 0.5 : 1"
       inkscape:vp_y="0 : 1000 : 0"
       inkscape:vp_z="1 : 0.5 : 1"
       inkscape:persp3d-origin="0.5 : 0.33333333 : 1"
       id="perspective2963" />
    <linearGradient
       gradientUnits="userSpaceOnUse"
       y2="488.10425"
       x2="26.775377"
       y1="496.81567"
       x1="26.571943"
       id="linearGradient2646"
       xlink:href="#linearGradient2640"
       inkscape:collect="always" />
    <inkscape:perspective
       id="perspective2570"
       inkscape:persp3d-origin="24 : 16 : 1"
       inkscape:vp_z="48 : 24 : 1"
       inkscape:vp_y="0 : 1000 : 0"
       inkscape:vp_x="0 : 24 : 1"
       sodipodi:type="inkscape:persp3d" />
    <linearGradient
       id="linearGradient2640"
       inkscape:collect="always">
      <stop
         id="stop2642"
         offset="0"
         style="stop-color:#000000;stop-opacity:1;" />
      <stop
         id="stop2644"
         offset="1"
         style="stop-color:#000000;stop-opacity:0;" />
    </linearGradient>
  </defs>
  <sodipodi:namedview
     id="base"
     pagecolor="#ffffff"
     bordercolor="#666666"
     borderopacity="1.0"
     inkscape:pageopacity="0.0"
     inkscape:pageshadow="2"
     inkscape:zoom="2.7229123"
     inkscape:cx="-62.23749"
     inkscape:cy="9.0396155"
     inkscape:current-layer="layer1"
     showgrid="true"
     inkscape:document-units="px"
     inkscape:grid-bbox="true"
     inkscape:window-width="1280"
     inkscape:window-height="975"
     inkscape:window-x="0"
     inkscape:window-y="25"
     inkscape:window-maximized="1" />
  <metadata
     id="metadata2990">
    <rdf:RDF>
      <cc:Work
         rdf:about="">
        <dc:format>image/svg+xml</dc:format>
        <dc:type
           rdf:resource="http://purl.org/dc/dcmitype/StillImage" />
        <dc:title />
      </cc:Work>
    </rdf:RDF>
  </metadata>
  <g
     id="layer1"
     inkscape:label="Layer 1"
     inkscape:groupmode="layer">
    <g
       id="g3089"
       transform="matrix(0.16217482,0,0,0.16217482,-172.64689,-191.27981)"
       style="fill:#f9f9f9;fill-opacity:1">
      <path
         id="path3067"
         d="m 1314.1875,1199.6875 c 5.7975,15.3671 4.8266,33.1205 -4.2187,48.3437 -0.1056,0.1777 -0.2053,0.3552 -0.3126,0.5313 12.6818,4.4983 24.5275,10.7356 35.2813,18.4375 l -82.8125,81.2188 -81.0625,-82.7813 c 10.1429,-6.9755 21.2496,-12.6888 33.0625,-16.875 -8.7856,-14.4477 -10.7691,-32.4618 -4.5938,-48.8125 -79.236,22.5789 -137.6435,95.0331 -138.4687,181.5938 -0.3222,33.7882 8.1867,65.624 23.3437,93.3124 0.3374,-0.6192 0.6681,-1.2324 1.0313,-1.8437 8.6698,-14.5913 22.9374,-23.8067 38.4375,-26.5313 -9.6032,-19.415 -14.9085,-41.3026 -14.6875,-64.4687 0.2897,-30.3988 9.9923,-58.5931 26.4063,-81.5937 l 81.25,82.625 -66.4376,65.1874 c 4.0036,1.2689 7.9187,3.0107 11.6876,5.25 11.6118,6.8997 19.8198,17.3389 24.0624,29.125 l 65.3126,-64.0937 65.3437,66.5 c 1.2794,-4.1118 3.0474,-8.1353 5.3437,-12 6.8276,-11.4906 17.1124,-19.6595 28.75,-23.9375 l -63.9687,-65.375 82.7813,-81.2188 c 16.0443,23.3419 25.3215,51.7769 25.0312,82.25 -0.2119,22.2044 -5.5165,43.1174 -14.75,61.75 6.4606,1.1409 12.8346,3.4481 18.8125,7 8.9973,5.3461 15.9447,12.8297 20.5937,21.4063 14.5746,-26.6599 23.0026,-57.1881 23.3126,-89.6875 0.8383,-87.9053 -57.878,-162.4241 -138.5313,-185.3125 z m -115.5937,311.5313 c -1.1498,6.4269 -3.4363,12.7735 -6.9688,18.7187 -5.3588,9.0188 -12.8617,15.9759 -21.4688,20.625 26.7349,14.7052 57.3711,23.2202 90,23.5313 33.9034,0.3232 65.8015,-8.2456 93.5313,-23.5 -0.6815,-0.368 -1.3593,-0.7258 -2.0313,-1.125 -14.5365,-8.6375 -23.7112,-22.8211 -26.4687,-38.25 -19.4485,9.6404 -41.3565,14.9713 -64.5625,14.75 -22.2349,-0.212 -43.3216,-5.5026 -62.0312,-14.75 z"
         style="fill:#f9f9f9;fill-opacity:1;stroke:none"
         inkscape:connector-curvature="0" />
      <circle
         inkscape:export-ydpi="90"
         inkscape:export-xdpi="90"
         inkscape:export-filename="/home/daz/Dropbox/Public/xubuntu-logo.png"
         transform="matrix(3.7683397,2.2390798,-2.2390798,3.7683397,1332.5234,1022.2872)"
         cx="9.1239996"
         cy="46.903999"
         r="9.1239996"
         style="fill:#f9f9f9;fill-opacity:1"
         id="circle3075"
         sodipodi:cx="9.1239996"
         sodipodi:cy="46.903999"
         sodipodi:rx="9.1239996"
         sodipodi:ry="9.1239996"
         d="m 18.247999,46.903999 c 0,5.039046 -4.084954,9.124 -9.1239994,9.124 C 4.0849538,56.027999 0,51.943045 0,46.903999 0,41.864953 4.0849538,37.78 9.1239996,37.78 c 5.0390454,0 9.1239994,4.084953 9.1239994,9.123999 z" />
      <circle
         d="m 18.247999,46.903999 c 0,5.039046 -4.084954,9.124 -9.1239994,9.124 C 4.0849538,56.027999 0,51.943045 0,46.903999 0,41.864953 4.0849538,37.78 9.1239996,37.78 c 5.0390454,0 9.1239994,4.084953 9.1239994,9.123999 z"
         sodipodi:ry="9.1239996"
         sodipodi:rx="9.1239996"
         sodipodi:cy="46.903999"
         sodipodi:cx="9.1239996"
         id="circle3083"
         style="fill:#f9f9f9;fill-opacity:1"
         r="9.1239996"
         cy="46.903999"
         cx="9.1239996"
         transform="matrix(3.7683397,2.2390798,-2.2390798,3.7683397,1450.8819,1304.1956)"
         inkscape:export-filename="/home/daz/Dropbox/Public/xubuntu-logo.png"
         inkscape:export-xdpi="90"
         inkscape:export-ydpi="90" />
      <circle
         inkscape:export-ydpi="90"
         inkscape:export-xdpi="90"
         inkscape:export-filename="/home/daz/Dropbox/Public/xubuntu-logo.png"
         transform="matrix(3.7683397,2.2390798,-2.2390798,3.7683397,1214.1649,1304.1956)"
         cx="9.1239996"
         cy="46.903999"
         r="9.1239996"
         style="fill:#f9f9f9;fill-opacity:1"
         id="circle3085"
         sodipodi:cx="9.1239996"
         sodipodi:cy="46.903999"
         sodipodi:rx="9.1239996"
         sodipodi:ry="9.1239996"
         d="m 18.247999,46.903999 c 0,5.039046 -4.084954,9.124 -9.1239994,9.124 C 4.0849538,56.027999 0,51.943045 0,46.903999 0,41.864953 4.0849538,37.78 9.1239996,37.78 c 5.0390454,0 9.1239994,4.084953 9.1239994,9.123999 z" />
    </g>
  </g>
</svg>
